<svg width="40" height="40" viewBox="0 0 40 40" fill="none" xmlns="http://www.w3.org/2000/svg">
<path d="M20 40C31.0457 40 40 31.0457 40 20C40 8.9543 31.0457 0 20 0C8.9543 0 0 8.9543 0 20C0 31.0457 8.9543 40 20 40Z" fill="url(#paint0_linear_5737_913)"/>
<path d="M20 40C31.0457 40 40 31.0457 40 20C40 8.9543 31.0457 0 20 0C8.9543 0 0 8.9543 0 20C0 31.0457 8.9543 40 20 40Z" fill="url(#paint1_linear_5737_913)"/>
<path d="M9.07287 3.41515C2.4236 9.46355 3.14521 20.3612 10.6866 27.7531C18.2255 35.145 29.7265 36.2366 36.3784 30.1856C37.1314 29.5006 37.7899 28.7535 38.3548 27.9565C39.4132 25.5182 40 22.8276 40 20C40 8.9543 31.0457 0 20 0C16.2831 0 12.803 1.01392 9.82129 2.78026C9.56561 2.98237 9.316 3.19399 9.07287 3.41515Z" fill="url(#paint2_radial_5737_913)"/>
<path d="M10.4305 3.41404C7.28333 8.20713 10.9484 15.6557 18.6177 20.0466C26.287 24.44 35.0527 24.114 38.2025 19.3183C39.0918 17.9642 39.4378 16.3987 39.3039 14.7502C36.998 6.25109 29.229 0 20 0C17.2133 0 14.5596 0.569953 12.1493 1.59965C11.4703 2.10859 10.8903 2.71365 10.4305 3.41404Z" fill="url(#paint3_radial_5737_913)"/>
<defs>
<linearGradient id="paint0_linear_5737_913" x1="19.374" y1="39.9981" x2="20.0441" y2="2.83451" gradientUnits="userSpaceOnUse">
<stop stop-color="#4581E9"/>
<stop offset="0.479167" stop-color="#80ACF0"/>
<stop offset="1" stop-color="white"/>
</linearGradient>
<linearGradient id="paint1_linear_5737_913" x1="51.002" y1="39.6288" x2="17.0622" y2="9.52518" gradientUnits="userSpaceOnUse">
<stop stop-color="#4581E9"/>
<stop offset="1" stop-color="#4581E9" stop-opacity="0"/>
</linearGradient>
<radialGradient id="paint2_radial_5737_913" cx="0" cy="0" r="1" gradientUnits="userSpaceOnUse" gradientTransform="translate(44.1785 22.4589) rotate(-156.113) scale(46.8272 97.3031)">
<stop offset="0.0969745" stop-color="#4581E9"/>
<stop offset="0.459935" stop-color="#80ACF0"/>
<stop offset="0.794216" stop-color="#F0F6FD"/>
</radialGradient>
<radialGradient id="paint3_radial_5737_913" cx="0" cy="0" r="1" gradientUnits="userSpaceOnUse" gradientTransform="translate(60.8724 3.99945) rotate(176.117) scale(42.1899 49.7398)">
<stop stop-color="#4581E9"/>
<stop offset="0.536835" stop-color="#87B1F0"/>
<stop offset="0.805657" stop-color="#CCE0FD"/>
<stop offset="1" stop-color="#F0F6FD"/>
</radialGradient>
</defs>
</svg>
