<svg width="69" height="64" viewBox="0 0 69 64" fill="none" xmlns="http://www.w3.org/2000/svg">
<path fill-rule="evenodd" clip-rule="evenodd" d="M11.0985 3.69231C7.09169 3.69231 3.69231 7.12916 3.69231 11.5627V52.4373C3.69231 56.8708 7.09169 60.3077 11.0985 60.3077H52.9015C56.901 60.3077 60.3026 56.8715 60.3077 52.4352V11.5627C60.3077 7.12916 56.9083 3.69231 52.9015 3.69231H11.0985ZM0 11.5627C0 5.26237 4.88424 0 11.0985 0H52.9015C59.1158 0 64 5.26237 64 11.5627V52.4394C63.9927 58.7369 59.1106 64 52.9015 64H11.0985C4.88424 64 0 58.7376 0 52.4373V11.5627Z" fill="url(#paint0_linear_11188_80277)"/>
<path d="M63.3541 49.5366L60.7906 48.1959L60.7844 48.1835C60.747 48.1649 60.7097 48.1525 60.6786 48.1339L60.6412 48.1153C56.0803 45.9429 51.451 44.3106 46.7781 43.1996V16.1385C46.7781 15.1951 46.0377 14.4441 45.1105 14.4441H39.1559H24.1416H18.1869C17.2723 14.4441 16.5194 15.1951 16.5194 16.1385V43.3299C11.8714 44.4782 7.24825 46.1291 2.6998 48.3015L0.889127 49.3938L0.615356 54.6323C2.24558 52.8696 3.95047 51.9262 3.95047 51.9262C7.78337 50.0393 12.4314 48.196 16.5256 47.1905V62.5644H24.1354V29.2656C24.1354 25.0761 27.5825 21.6066 31.6892 21.6066C35.8021 21.6066 39.1434 24.9954 39.1434 29.1787C39.1434 29.2098 39.131 29.2408 39.131 29.2656H39.1434V41.8651C35.6403 41.4617 32.1247 41.3314 28.6092 41.5176L25.7158 45.7071C30.2207 45.3285 34.6074 45.3595 38.9381 45.8498C38.9817 45.8498 39.0065 45.8498 39.0501 45.8622C39.0812 45.8622 39.1123 45.8622 39.1497 45.8747C39.9025 45.9616 42.6528 46.3091 45.1665 46.9298L39.1497 48.9718V62.552H46.7532V47.2463C50.8537 48.2766 54.9043 49.7849 58.9737 51.7586L60.9088 52.5654C60.9088 52.5654 63.1053 53.6516 63.6217 54.7626L63.3541 49.5366Z" fill="url(#paint1_linear_11188_80277)"/>
<path d="M58.4945 34.4617H65.8056L66.1541 38.2539L58.6314 38.2229L58.4945 34.4617Z" fill="#09081E"/>
<path d="M67.8032 34.6326H58.8494C54.8796 34.6326 51.6689 31.4238 51.6689 27.4701C51.6689 23.5103 54.8858 20.3076 58.8494 20.3076H67.8032C68.4192 20.3076 68.9232 20.8042 68.9232 21.4248V33.5278C68.9232 34.1361 68.4254 34.6326 67.8032 34.6326Z" fill="url(#paint2_linear_11188_80277)"/>
<path d="M58.7499 31.0762C60.7465 31.0762 62.365 29.4617 62.365 27.4701C62.365 25.4785 60.7465 23.864 58.7499 23.864C56.7533 23.864 55.1348 25.4785 55.1348 27.4701C55.1348 29.4617 56.7533 31.0762 58.7499 31.0762Z" fill="#110A2F"/>
<defs>
<linearGradient id="paint0_linear_11188_80277" x1="-0.0413801" y1="32.0462" x2="64.038" y2="31.9635" gradientUnits="userSpaceOnUse">
<stop stop-color="#8D29C1"/>
<stop offset="0.0858" stop-color="#8D29C1"/>
<stop offset="0.2383" stop-color="#942BBB"/>
<stop offset="0.4667" stop-color="#A92FAC"/>
<stop offset="0.7413" stop-color="#CA3793"/>
<stop offset="1" stop-color="#F03F77"/>
</linearGradient>
<linearGradient id="paint1_linear_11188_80277" x1="0.606272" y1="38.5073" x2="63.6299" y2="38.5073" gradientUnits="userSpaceOnUse">
<stop stop-color="#8D29C1"/>
<stop offset="0.0858" stop-color="#8D29C1"/>
<stop offset="0.2383" stop-color="#942BBB"/>
<stop offset="0.4667" stop-color="#A92FAC"/>
<stop offset="0.7413" stop-color="#CA3793"/>
<stop offset="1" stop-color="#F03F77"/>
</linearGradient>
<linearGradient id="paint2_linear_11188_80277" x1="60.8874" y1="9.4074" x2="60.2706" y2="31.4612" gradientUnits="userSpaceOnUse">
<stop stop-color="#8D29C1"/>
<stop offset="0.0858" stop-color="#8D29C1"/>
<stop offset="0.2383" stop-color="#942BBB"/>
<stop offset="0.4667" stop-color="#A92FAC"/>
<stop offset="0.7413" stop-color="#CA3793"/>
<stop offset="1" stop-color="#F03F77"/>
</linearGradient>
</defs>
</svg>
