<svg width="36" height="33" viewBox="0 0 36 33" fill="none" xmlns="http://www.w3.org/2000/svg">
<rect width="15.2409" height="15.3448" rx="1.53092" transform="matrix(0.0742384 0.99724 -0.997315 0.0732313 15.3032 2.60803)" fill="#14A9AB"/>
<rect width="15.2422" height="15.3435" rx="1.53092" transform="matrix(-0.134085 0.99097 -0.991211 -0.132288 28.915 2.02975)" fill="#0153DB"/>
<rect width="15.2422" height="15.3435" rx="1.53092" transform="matrix(-0.134085 0.99097 -0.991211 -0.132288 35.4443 14.3231)" fill="#69E0A0"/>
<rect width="15.2422" height="15.3435" rx="1.53092" transform="matrix(-0.134085 0.99097 -0.991211 -0.132288 22.3164 17.1177)" fill="#252D37"/>
<path d="M14.3251 11.451C14.3109 10.8644 14.9397 10.4836 15.4583 10.7647L24.7881 15.8213C25.308 16.1031 25.3273 16.8382 24.8229 17.1437L15.7486 22.64C15.2442 22.9455 14.5949 22.5919 14.5807 22.0039L14.3251 11.451Z" fill="white"/>
</svg>
